<mxfile host="app.diagrams.net" modified="2022-10-10T02:06:49.422Z" agent="5.0 (Windows NT 10.0; Win64; x64) AppleWebKit/537.36 (KHTML, like Gecko) Chrome/105.0.0.0 Safari/537.36" etag="EP3c--BNaCpVI-Bw7oft" version="20.0.3" type="github">
  <diagram name="5.Use passcode" id="7i3GNUiUWpW6LsTLCLUb">
    <mxGraphModel dx="1550" dy="787" grid="1" gridSize="5" guides="1" tooltips="1" connect="1" arrows="1" fold="1" page="1" pageScale="1" pageWidth="1654" pageHeight="2336" math="0" shadow="0">
      <root>
        <mxCell id="Ll0TUTOF1Aih_Eim0PND-0" />
        <mxCell id="Ll0TUTOF1Aih_Eim0PND-1" parent="Ll0TUTOF1Aih_Eim0PND-0" />
        <mxCell id="jUwYqst78MV3PYVB4rAi-16" value="" style="group" parent="Ll0TUTOF1Aih_Eim0PND-1" connectable="0" vertex="1">
          <mxGeometry x="292" y="840" width="940" height="215" as="geometry" />
        </mxCell>
        <mxCell id="jUwYqst78MV3PYVB4rAi-14" value="Alt" style="shape=umlFrame;whiteSpace=wrap;html=1;" parent="jUwYqst78MV3PYVB4rAi-16" vertex="1">
          <mxGeometry width="940" height="215" as="geometry" />
        </mxCell>
        <mxCell id="jUwYqst78MV3PYVB4rAi-15" value="" style="line;strokeWidth=1;fillColor=none;align=left;verticalAlign=middle;spacingTop=-1;spacingLeft=3;spacingRight=3;rotatable=0;labelPosition=right;points=[];portConstraint=eastwest;dashed=1;" parent="jUwYqst78MV3PYVB4rAi-16" vertex="1">
          <mxGeometry y="130" width="940" height="8" as="geometry" />
        </mxCell>
        <mxCell id="jUwYqst78MV3PYVB4rAi-17" value="Remember" style="text;html=1;strokeColor=none;fillColor=none;align=center;verticalAlign=middle;whiteSpace=wrap;rounded=0;dashed=1;" parent="jUwYqst78MV3PYVB4rAi-16" vertex="1">
          <mxGeometry x="15.878378378378377" y="50" width="38.108108108108105" height="30" as="geometry" />
        </mxCell>
        <mxCell id="jUwYqst78MV3PYVB4rAi-18" value="Don&#39;t&amp;nbsp;&lt;br&gt;Remember" style="text;html=1;strokeColor=none;fillColor=none;align=center;verticalAlign=middle;whiteSpace=wrap;rounded=0;dashed=1;" parent="jUwYqst78MV3PYVB4rAi-16" vertex="1">
          <mxGeometry x="15.878378378378377" y="150" width="38.108108108108105" height="30" as="geometry" />
        </mxCell>
        <mxCell id="QzJCntWpNUbFTJizOiE5-14" value="" style="group" parent="Ll0TUTOF1Aih_Eim0PND-1" connectable="0" vertex="1">
          <mxGeometry x="233" y="615" width="1054" height="1000" as="geometry" />
        </mxCell>
        <mxCell id="QzJCntWpNUbFTJizOiE5-10" value="Alt" style="shape=umlFrame;whiteSpace=wrap;html=1;" parent="QzJCntWpNUbFTJizOiE5-14" vertex="1">
          <mxGeometry width="1054" height="999.9999999999999" as="geometry" />
        </mxCell>
        <mxCell id="QzJCntWpNUbFTJizOiE5-11" value="" style="line;strokeWidth=1;fillColor=none;align=left;verticalAlign=middle;spacingTop=-1;spacingLeft=3;spacingRight=3;rotatable=0;labelPosition=right;points=[];portConstraint=eastwest;dashed=1;" parent="QzJCntWpNUbFTJizOiE5-14" vertex="1">
          <mxGeometry y="399.00497512437806" width="1054" height="7.960199004975124" as="geometry" />
        </mxCell>
        <mxCell id="QzJCntWpNUbFTJizOiE5-12" value="Response:&lt;br&gt;Success" style="text;html=1;strokeColor=none;fillColor=none;align=center;verticalAlign=middle;whiteSpace=wrap;rounded=0;dashed=1;" parent="QzJCntWpNUbFTJizOiE5-14" vertex="1">
          <mxGeometry x="-26.000000000000007" y="62.17714536127651" width="210.79999999999998" height="29.850746268656714" as="geometry" />
        </mxCell>
        <mxCell id="QzJCntWpNUbFTJizOiE5-13" value="Response:&lt;br&gt;Fail" style="text;html=1;strokeColor=none;fillColor=none;align=center;verticalAlign=middle;whiteSpace=wrap;rounded=0;dashed=1;" parent="QzJCntWpNUbFTJizOiE5-14" vertex="1">
          <mxGeometry x="-26.000000000000007" y="445.5922975794602" width="210.79999999999998" height="29.850746268656714" as="geometry" />
        </mxCell>
        <mxCell id="Ll0TUTOF1Aih_Eim0PND-2" value="Account" style="shape=umlLifeline;perimeter=lifelinePerimeter;container=1;collapsible=0;recursiveResize=0;rounded=0;shadow=0;strokeWidth=1;" parent="Ll0TUTOF1Aih_Eim0PND-1" vertex="1">
          <mxGeometry x="367" y="140" width="100" height="2905" as="geometry" />
        </mxCell>
        <mxCell id="Ll0TUTOF1Aih_Eim0PND-3" value="" style="html=1;points=[];perimeter=orthogonalPerimeter;" parent="Ll0TUTOF1Aih_Eim0PND-2" vertex="1">
          <mxGeometry x="46" y="93" width="10" height="17" as="geometry" />
        </mxCell>
        <mxCell id="Ll0TUTOF1Aih_Eim0PND-4" value="Click on &quot;Next&quot; button&lt;br&gt;in Enter Account Name screen&lt;br&gt;or Name in use, Avatar in use,&lt;br&gt;Name and avatar in use screen" style="edgeStyle=orthogonalEdgeStyle;html=1;align=left;spacingLeft=2;endArrow=block;rounded=0;entryX=1;entryY=0;" parent="Ll0TUTOF1Aih_Eim0PND-2" target="Ll0TUTOF1Aih_Eim0PND-3" edge="1">
          <mxGeometry relative="1" as="geometry">
            <mxPoint x="51" y="73" as="sourcePoint" />
            <Array as="points">
              <mxPoint x="81" y="73" />
            </Array>
          </mxGeometry>
        </mxCell>
        <mxCell id="rllTW41nW2jnKarq9-gX-4" value="" style="html=1;points=[];perimeter=orthogonalPerimeter;" parent="Ll0TUTOF1Aih_Eim0PND-2" vertex="1">
          <mxGeometry x="46" y="143" width="10" height="130" as="geometry" />
        </mxCell>
        <mxCell id="rllTW41nW2jnKarq9-gX-5" value="setCurrentViewId (E_HMI_USE_PASSCODE)" style="edgeStyle=orthogonalEdgeStyle;html=1;align=left;spacingLeft=2;endArrow=block;rounded=0;entryX=1;entryY=0;" parent="Ll0TUTOF1Aih_Eim0PND-2" target="rllTW41nW2jnKarq9-gX-4" edge="1">
          <mxGeometry relative="1" as="geometry">
            <mxPoint x="51" y="123" as="sourcePoint" />
            <Array as="points">
              <mxPoint x="81" y="123" />
            </Array>
          </mxGeometry>
        </mxCell>
        <mxCell id="rllTW41nW2jnKarq9-gX-6" value="" style="html=1;points=[];perimeter=orthogonalPerimeter;" parent="Ll0TUTOF1Aih_Eim0PND-2" vertex="1">
          <mxGeometry x="52" y="183" width="10" height="80" as="geometry" />
        </mxCell>
        <mxCell id="rllTW41nW2jnKarq9-gX-7" value="Click on &quot;Use passcode&quot;" style="edgeStyle=orthogonalEdgeStyle;html=1;align=left;spacingLeft=2;endArrow=block;rounded=0;entryX=1;entryY=0;" parent="Ll0TUTOF1Aih_Eim0PND-2" target="rllTW41nW2jnKarq9-gX-6" edge="1">
          <mxGeometry relative="1" as="geometry">
            <mxPoint x="57" y="163" as="sourcePoint" />
            <Array as="points">
              <mxPoint x="87" y="163" />
            </Array>
          </mxGeometry>
        </mxCell>
        <mxCell id="OQmPSfKjK-mu0-LjnbWT-0" value="" style="html=1;points=[];perimeter=orthogonalPerimeter;" parent="Ll0TUTOF1Aih_Eim0PND-2" vertex="1">
          <mxGeometry x="56" y="223" width="10" height="20" as="geometry" />
        </mxCell>
        <mxCell id="OQmPSfKjK-mu0-LjnbWT-1" value="setCurrentViewId &lt;br&gt;(E_HMI_VIEW_INCONTROL_SIGNIN)" style="edgeStyle=orthogonalEdgeStyle;html=1;align=left;spacingLeft=2;endArrow=block;rounded=0;entryX=1;entryY=0;" parent="Ll0TUTOF1Aih_Eim0PND-2" target="OQmPSfKjK-mu0-LjnbWT-0" edge="1">
          <mxGeometry relative="1" as="geometry">
            <mxPoint x="61" y="203" as="sourcePoint" />
            <Array as="points">
              <mxPoint x="91" y="203" />
            </Array>
          </mxGeometry>
        </mxCell>
        <mxCell id="OQmPSfKjK-mu0-LjnbWT-2" value="" style="html=1;points=[];perimeter=orthogonalPerimeter;" parent="Ll0TUTOF1Aih_Eim0PND-2" vertex="1">
          <mxGeometry x="45" y="319" width="10" height="136" as="geometry" />
        </mxCell>
        <mxCell id="OQmPSfKjK-mu0-LjnbWT-3" value="setCurrentSubViewId&lt;br&gt;(&lt;span style=&quot;color: rgb(128, 0, 128);&quot;&gt;E_HMI_SUB_VIEW_SIGNIN_CONFIRM_PIN&lt;/span&gt;)" style="edgeStyle=orthogonalEdgeStyle;html=1;align=left;spacingLeft=2;endArrow=block;rounded=0;entryX=1;entryY=0;" parent="Ll0TUTOF1Aih_Eim0PND-2" target="OQmPSfKjK-mu0-LjnbWT-2" edge="1">
          <mxGeometry relative="1" as="geometry">
            <mxPoint x="50" y="299" as="sourcePoint" />
            <Array as="points">
              <mxPoint x="80" y="299" />
            </Array>
          </mxGeometry>
        </mxCell>
        <mxCell id="OQmPSfKjK-mu0-LjnbWT-4" value="" style="html=1;points=[];perimeter=orthogonalPerimeter;" parent="Ll0TUTOF1Aih_Eim0PND-2" vertex="1">
          <mxGeometry x="46" y="1060" width="10" height="20" as="geometry" />
        </mxCell>
        <mxCell id="OQmPSfKjK-mu0-LjnbWT-5" value="setCurrentSubViewId&lt;br&gt;(&lt;span style=&quot;color: rgb(128, 0, 128);&quot;&gt;E_HMI_SUB_VIEW_SIGNIN_CONFIRM_PIN&lt;/span&gt;" style="edgeStyle=orthogonalEdgeStyle;html=1;align=left;spacingLeft=2;endArrow=block;rounded=0;entryX=1;entryY=0;" parent="Ll0TUTOF1Aih_Eim0PND-2" target="OQmPSfKjK-mu0-LjnbWT-4" edge="1">
          <mxGeometry relative="1" as="geometry">
            <mxPoint x="51" y="1040" as="sourcePoint" />
            <Array as="points">
              <mxPoint x="81" y="1040" />
            </Array>
          </mxGeometry>
        </mxCell>
        <mxCell id="jUwYqst78MV3PYVB4rAi-8" value="" style="html=1;points=[];perimeter=orthogonalPerimeter;" parent="Ll0TUTOF1Aih_Eim0PND-2" vertex="1">
          <mxGeometry x="51" y="360" width="10" height="25" as="geometry" />
        </mxCell>
        <mxCell id="jUwYqst78MV3PYVB4rAi-9" value="Select the PIN and&lt;br&gt;click on &quot;Continue&quot; button" style="edgeStyle=orthogonalEdgeStyle;html=1;align=left;spacingLeft=2;endArrow=block;rounded=0;entryX=1;entryY=0;" parent="Ll0TUTOF1Aih_Eim0PND-2" target="jUwYqst78MV3PYVB4rAi-8" edge="1">
          <mxGeometry relative="1" as="geometry">
            <mxPoint x="56" y="340" as="sourcePoint" />
            <Array as="points">
              <mxPoint x="86" y="340" />
            </Array>
          </mxGeometry>
        </mxCell>
        <mxCell id="JeS0EOX_MZ1Tq1z5bf3x-3" value="" style="html=1;points=[];perimeter=orthogonalPerimeter;" parent="Ll0TUTOF1Aih_Eim0PND-2" vertex="1">
          <mxGeometry x="50" y="420" width="10" height="25" as="geometry" />
        </mxCell>
        <mxCell id="JeS0EOX_MZ1Tq1z5bf3x-4" value="setOverlayState&lt;br&gt;(E_HMI_OVERLAY_SIGNED_IN)" style="edgeStyle=orthogonalEdgeStyle;html=1;align=left;spacingLeft=2;endArrow=block;rounded=0;entryX=1;entryY=0;" parent="Ll0TUTOF1Aih_Eim0PND-2" target="JeS0EOX_MZ1Tq1z5bf3x-3" edge="1">
          <mxGeometry relative="1" as="geometry">
            <mxPoint x="55" y="400" as="sourcePoint" />
            <Array as="points">
              <mxPoint x="85" y="400" />
            </Array>
          </mxGeometry>
        </mxCell>
        <mxCell id="jUwYqst78MV3PYVB4rAi-6" value="" style="html=1;points=[];perimeter=orthogonalPerimeter;" parent="Ll0TUTOF1Aih_Eim0PND-2" vertex="1">
          <mxGeometry x="47" y="657" width="10" height="30" as="geometry" />
        </mxCell>
        <mxCell id="jUwYqst78MV3PYVB4rAi-7" value="setCurrentSubViewId &lt;br&gt;(E_HMI_SUB_VIEW_SIGNIN_REMEMBER_PIN)" style="edgeStyle=orthogonalEdgeStyle;html=1;align=left;spacingLeft=2;endArrow=block;rounded=0;entryX=1;entryY=0;" parent="Ll0TUTOF1Aih_Eim0PND-2" target="jUwYqst78MV3PYVB4rAi-6" edge="1">
          <mxGeometry relative="1" as="geometry">
            <mxPoint x="52" y="637" as="sourcePoint" />
            <Array as="points">
              <mxPoint x="82" y="637" />
            </Array>
          </mxGeometry>
        </mxCell>
        <mxCell id="jUwYqst78MV3PYVB4rAi-10" value="" style="html=1;points=[];perimeter=orthogonalPerimeter;" parent="Ll0TUTOF1Aih_Eim0PND-2" vertex="1">
          <mxGeometry x="46" y="731" width="10" height="26" as="geometry" />
        </mxCell>
        <mxCell id="jUwYqst78MV3PYVB4rAi-11" value="Click on &quot;Remember&quot; &lt;br&gt;button" style="edgeStyle=orthogonalEdgeStyle;html=1;align=left;spacingLeft=2;endArrow=block;rounded=0;entryX=1;entryY=0;" parent="Ll0TUTOF1Aih_Eim0PND-2" target="jUwYqst78MV3PYVB4rAi-10" edge="1">
          <mxGeometry relative="1" as="geometry">
            <mxPoint x="51" y="711" as="sourcePoint" />
            <Array as="points">
              <mxPoint x="81" y="711" />
            </Array>
          </mxGeometry>
        </mxCell>
        <mxCell id="jUwYqst78MV3PYVB4rAi-12" value="" style="html=1;points=[];perimeter=orthogonalPerimeter;" parent="Ll0TUTOF1Aih_Eim0PND-2" vertex="1">
          <mxGeometry x="46" y="871" width="10" height="26" as="geometry" />
        </mxCell>
        <mxCell id="jUwYqst78MV3PYVB4rAi-13" value="Click on &quot;Don&#39;t Remember&quot; &lt;br&gt;button" style="edgeStyle=orthogonalEdgeStyle;html=1;align=left;spacingLeft=2;endArrow=block;rounded=0;entryX=1;entryY=0;" parent="Ll0TUTOF1Aih_Eim0PND-2" target="jUwYqst78MV3PYVB4rAi-12" edge="1">
          <mxGeometry relative="1" as="geometry">
            <mxPoint x="51" y="851" as="sourcePoint" />
            <Array as="points">
              <mxPoint x="81" y="851" />
            </Array>
          </mxGeometry>
        </mxCell>
        <mxCell id="jUwYqst78MV3PYVB4rAi-22" value="" style="html=1;points=[];perimeter=orthogonalPerimeter;" parent="Ll0TUTOF1Aih_Eim0PND-2" vertex="1">
          <mxGeometry x="46" y="1182" width="10" height="20" as="geometry" />
        </mxCell>
        <mxCell id="jUwYqst78MV3PYVB4rAi-23" value="setCurrentSubViewId&lt;br&gt;(E_HMI_SUB_VIEW_SIGNIN_CREATE_PIN)" style="edgeStyle=orthogonalEdgeStyle;html=1;align=left;spacingLeft=2;endArrow=block;rounded=0;entryX=1;entryY=0;" parent="Ll0TUTOF1Aih_Eim0PND-2" target="jUwYqst78MV3PYVB4rAi-22" edge="1">
          <mxGeometry relative="1" as="geometry">
            <mxPoint x="51" y="1162" as="sourcePoint" />
            <Array as="points">
              <mxPoint x="81" y="1162" />
            </Array>
          </mxGeometry>
        </mxCell>
        <mxCell id="7maRlyfhHBZz7VpoM_D0-0" value="" style="html=1;points=[];perimeter=orthogonalPerimeter;" parent="Ll0TUTOF1Aih_Eim0PND-2" vertex="1">
          <mxGeometry x="46" y="1120" width="10" height="20" as="geometry" />
        </mxCell>
        <mxCell id="7maRlyfhHBZz7VpoM_D0-1" value="Click on &quot;Forgot your passcode&quot;" style="edgeStyle=orthogonalEdgeStyle;html=1;align=left;spacingLeft=2;endArrow=block;rounded=0;entryX=1;entryY=0;" parent="Ll0TUTOF1Aih_Eim0PND-2" target="7maRlyfhHBZz7VpoM_D0-0" edge="1">
          <mxGeometry relative="1" as="geometry">
            <mxPoint x="51" y="1100" as="sourcePoint" />
            <Array as="points">
              <mxPoint x="81" y="1100" />
            </Array>
          </mxGeometry>
        </mxCell>
        <mxCell id="QzJCntWpNUbFTJizOiE5-3" value="" style="html=1;points=[];perimeter=orthogonalPerimeter;" parent="Ll0TUTOF1Aih_Eim0PND-2" vertex="1">
          <mxGeometry x="46" y="1245" width="10" height="20" as="geometry" />
        </mxCell>
        <mxCell id="QzJCntWpNUbFTJizOiE5-4" value="Enter passcode and press on&amp;nbsp;&lt;br&gt;&quot;Continue&quot; button" style="edgeStyle=orthogonalEdgeStyle;html=1;align=left;spacingLeft=2;endArrow=block;rounded=0;entryX=1;entryY=0;" parent="Ll0TUTOF1Aih_Eim0PND-2" target="QzJCntWpNUbFTJizOiE5-3" edge="1">
          <mxGeometry relative="1" as="geometry">
            <mxPoint x="51" y="1225" as="sourcePoint" />
            <Array as="points">
              <mxPoint x="81" y="1225" />
            </Array>
          </mxGeometry>
        </mxCell>
        <mxCell id="QzJCntWpNUbFTJizOiE5-5" value="" style="html=1;points=[];perimeter=orthogonalPerimeter;" parent="Ll0TUTOF1Aih_Eim0PND-2" vertex="1">
          <mxGeometry x="47" y="1370" width="10" height="25" as="geometry" />
        </mxCell>
        <mxCell id="QzJCntWpNUbFTJizOiE5-6" value="setCurrentSubView &lt;br&gt;(&lt;span style=&quot;color: rgb(128, 0, 128);&quot;&gt;E_HMI_SUB_VIEW_SIGNIN_CONFIRM_PIN&lt;/span&gt;)" style="edgeStyle=orthogonalEdgeStyle;html=1;align=left;spacingLeft=2;endArrow=block;rounded=0;entryX=1;entryY=0;" parent="Ll0TUTOF1Aih_Eim0PND-2" target="QzJCntWpNUbFTJizOiE5-5" edge="1">
          <mxGeometry relative="1" as="geometry">
            <mxPoint x="52" y="1350" as="sourcePoint" />
            <Array as="points">
              <mxPoint x="82" y="1350" />
            </Array>
          </mxGeometry>
        </mxCell>
        <mxCell id="QzJCntWpNUbFTJizOiE5-15" value="" style="html=1;points=[];perimeter=orthogonalPerimeter;" parent="Ll0TUTOF1Aih_Eim0PND-2" vertex="1">
          <mxGeometry x="45" y="1545" width="10" height="25" as="geometry" />
        </mxCell>
        <mxCell id="QzJCntWpNUbFTJizOiE5-16" value="setCurrentViewId&amp;nbsp;&lt;br&gt;(&lt;span style=&quot;color: rgb(128, 0, 128);&quot;&gt;E_HMI_VIEW_ACCOUNT_WELCOME&lt;/span&gt;)" style="edgeStyle=orthogonalEdgeStyle;html=1;align=left;spacingLeft=2;endArrow=block;rounded=0;entryX=1;entryY=0;" parent="Ll0TUTOF1Aih_Eim0PND-2" target="QzJCntWpNUbFTJizOiE5-15" edge="1">
          <mxGeometry relative="1" as="geometry">
            <mxPoint x="50" y="1525" as="sourcePoint" />
            <Array as="points">
              <mxPoint x="80" y="1525" />
            </Array>
          </mxGeometry>
        </mxCell>
        <mxCell id="Ll0TUTOF1Aih_Eim0PND-59" value="Notification &#xa;Service" style="shape=umlLifeline;perimeter=lifelinePerimeter;container=1;collapsible=0;recursiveResize=0;rounded=0;shadow=0;strokeWidth=1;" parent="Ll0TUTOF1Aih_Eim0PND-1" vertex="1">
          <mxGeometry x="547" y="140" width="100" height="2790" as="geometry" />
        </mxCell>
        <mxCell id="Ll0TUTOF1Aih_Eim0PND-60" value="User Profile Service" style="shape=umlLifeline;perimeter=lifelinePerimeter;whiteSpace=wrap;html=1;container=1;collapsible=0;recursiveResize=0;outlineConnect=0;" parent="Ll0TUTOF1Aih_Eim0PND-1" vertex="1">
          <mxGeometry x="722" y="140" width="100" height="2785" as="geometry" />
        </mxCell>
        <mxCell id="JeS0EOX_MZ1Tq1z5bf3x-0" value="" style="html=1;points=[];perimeter=orthogonalPerimeter;" parent="Ll0TUTOF1Aih_Eim0PND-60" vertex="1">
          <mxGeometry x="45" y="568" width="10" height="40" as="geometry" />
        </mxCell>
        <mxCell id="jUwYqst78MV3PYVB4rAi-1" value="&lt;pre style=&quot;margin-top: 0px; margin-bottom: 0px;&quot;&gt;&lt;span style=&quot;color:#00677c;&quot;&gt;requestSetRememberPINWithUserId&lt;/span&gt;&lt;/pre&gt;" style="html=1;verticalAlign=bottom;endArrow=block;rounded=0;exitX=0.49;exitY=0.269;exitDx=0;exitDy=0;exitPerimeter=0;" parent="Ll0TUTOF1Aih_Eim0PND-60" source="Ll0TUTOF1Aih_Eim0PND-2" edge="1">
          <mxGeometry width="80" relative="1" as="geometry">
            <mxPoint x="-295" y="780" as="sourcePoint" />
            <mxPoint x="38" y="781" as="targetPoint" />
          </mxGeometry>
        </mxCell>
        <mxCell id="jUwYqst78MV3PYVB4rAi-4" value="" style="html=1;points=[];perimeter=orthogonalPerimeter;" parent="Ll0TUTOF1Aih_Eim0PND-60" vertex="1">
          <mxGeometry x="43" y="782" width="10" height="30" as="geometry" />
        </mxCell>
        <mxCell id="jUwYqst78MV3PYVB4rAi-5" value="&lt;pre style=&quot;margin-top: 0px; margin-bottom: 0px;&quot;&gt;&lt;span style=&quot;font-weight:600; color:#00677c;&quot;&gt;onResponseSetRememberPINWithUserId&lt;/span&gt;&lt;/pre&gt;" style="html=1;verticalAlign=bottom;endArrow=open;dashed=1;endSize=8;rounded=0;" parent="Ll0TUTOF1Aih_Eim0PND-60" target="Ll0TUTOF1Aih_Eim0PND-2" edge="1">
          <mxGeometry relative="1" as="geometry">
            <mxPoint x="28" y="812" as="sourcePoint" />
            <mxPoint x="-292" y="812" as="targetPoint" />
          </mxGeometry>
        </mxCell>
        <mxCell id="jUwYqst78MV3PYVB4rAi-19" value="" style="html=1;points=[];perimeter=orthogonalPerimeter;" parent="Ll0TUTOF1Aih_Eim0PND-60" vertex="1">
          <mxGeometry x="45" y="957" width="10" height="40" as="geometry" />
        </mxCell>
        <mxCell id="QzJCntWpNUbFTJizOiE5-0" value="" style="html=1;points=[];perimeter=orthogonalPerimeter;" parent="Ll0TUTOF1Aih_Eim0PND-60" vertex="1">
          <mxGeometry x="43" y="1286" width="10" height="30" as="geometry" />
        </mxCell>
        <mxCell id="QzJCntWpNUbFTJizOiE5-7" value="" style="html=1;points=[];perimeter=orthogonalPerimeter;" parent="Ll0TUTOF1Aih_Eim0PND-60" vertex="1">
          <mxGeometry x="45" y="1420" width="10" height="40" as="geometry" />
        </mxCell>
        <mxCell id="QzJCntWpNUbFTJizOiE5-8" value="&lt;pre style=&quot;margin-top: 0px; margin-bottom: 0px;&quot;&gt;requestUserLogin(userId,&lt;span style=&quot;color:#c0c0c0;&quot;&gt; &lt;/span&gt;pin)&lt;/pre&gt;" style="html=1;verticalAlign=bottom;endArrow=block;entryX=0;entryY=0;rounded=0;" parent="Ll0TUTOF1Aih_Eim0PND-60" target="QzJCntWpNUbFTJizOiE5-7" edge="1">
          <mxGeometry relative="1" as="geometry">
            <mxPoint x="-305.3333333333335" y="1420" as="sourcePoint" />
          </mxGeometry>
        </mxCell>
        <mxCell id="QzJCntWpNUbFTJizOiE5-9" value="&lt;pre style=&quot;margin-top: 0px; margin-bottom: 0px;&quot;&gt;&lt;span style=&quot;font-weight:600; color:#00677c;&quot;&gt;onResponseUserLogin&lt;br&gt;&lt;/span&gt;(&lt;font color=&quot;#092e64&quot;&gt;userId&lt;/font&gt;,&lt;span style=&quot;color:#c0c0c0;&quot;&gt; &lt;/span&gt;E_LOGIN_RESULT_SUCCESS)&lt;br&gt;&lt;/pre&gt;" style="html=1;verticalAlign=bottom;endArrow=open;dashed=1;endSize=8;rounded=0;" parent="Ll0TUTOF1Aih_Eim0PND-60" edge="1">
          <mxGeometry relative="1" as="geometry">
            <mxPoint x="-305.3333333333335" y="1458" as="targetPoint" />
            <mxPoint x="44.5" y="1458" as="sourcePoint" />
          </mxGeometry>
        </mxCell>
        <mxCell id="Ll0TUTOF1Aih_Eim0PND-66" value="Popup Service" style="shape=umlLifeline;perimeter=lifelinePerimeter;whiteSpace=wrap;html=1;container=1;collapsible=0;recursiveResize=0;outlineConnect=0;" parent="Ll0TUTOF1Aih_Eim0PND-1" vertex="1">
          <mxGeometry x="907" y="140" width="100" height="2790" as="geometry" />
        </mxCell>
        <mxCell id="Ll0TUTOF1Aih_Eim0PND-68" value="App Service" style="shape=umlLifeline;perimeter=lifelinePerimeter;whiteSpace=wrap;html=1;container=1;collapsible=0;recursiveResize=0;outlineConnect=0;" parent="Ll0TUTOF1Aih_Eim0PND-1" vertex="1">
          <mxGeometry x="1072" y="140" width="100" height="2795" as="geometry" />
        </mxCell>
        <mxCell id="jUwYqst78MV3PYVB4rAi-0" value="&lt;pre style=&quot;margin-top: 0px; margin-bottom: 0px;&quot;&gt;requestToGoApplication (HMI_ROLE_ACCOUNT_OVERLAY)&lt;/pre&gt;" style="html=1;verticalAlign=bottom;endArrow=block;rounded=0;exitX=0.524;exitY=0.169;exitDx=0;exitDy=0;exitPerimeter=0;" parent="Ll0TUTOF1Aih_Eim0PND-68" source="Ll0TUTOF1Aih_Eim0PND-2" edge="1">
          <mxGeometry width="80" relative="1" as="geometry">
            <mxPoint x="-645" y="490" as="sourcePoint" />
            <mxPoint x="33" y="490" as="targetPoint" />
          </mxGeometry>
        </mxCell>
        <mxCell id="jUwYqst78MV3PYVB4rAi-3" value="" style="html=1;points=[];perimeter=orthogonalPerimeter;" parent="Ll0TUTOF1Aih_Eim0PND-68" vertex="1">
          <mxGeometry x="45" y="490" width="10" height="30" as="geometry" />
        </mxCell>
        <mxCell id="jUwYqst78MV3PYVB4rAi-2" value="onCmdShowApplication" style="html=1;verticalAlign=bottom;endArrow=open;dashed=1;endSize=8;rounded=0;" parent="Ll0TUTOF1Aih_Eim0PND-68" target="Ll0TUTOF1Aih_Eim0PND-2" edge="1">
          <mxGeometry relative="1" as="geometry">
            <mxPoint x="33" y="520" as="sourcePoint" />
            <mxPoint x="-645" y="525" as="targetPoint" />
          </mxGeometry>
        </mxCell>
        <mxCell id="JeS0EOX_MZ1Tq1z5bf3x-1" value="&lt;pre style=&quot;margin-top: 0px; margin-bottom: 0px;&quot;&gt;requestUserLogin(userId,&lt;span style=&quot;color:#c0c0c0;&quot;&gt; &lt;/span&gt;pin)&lt;/pre&gt;" style="html=1;verticalAlign=bottom;endArrow=block;rounded=0;exitX=0.51;exitY=0.196;exitDx=0;exitDy=0;exitPerimeter=0;" parent="Ll0TUTOF1Aih_Eim0PND-1" source="Ll0TUTOF1Aih_Eim0PND-2" edge="1">
          <mxGeometry relative="1" as="geometry">
            <mxPoint x="427" y="708" as="sourcePoint" />
            <mxPoint x="755" y="709" as="targetPoint" />
          </mxGeometry>
        </mxCell>
        <mxCell id="JeS0EOX_MZ1Tq1z5bf3x-2" value="&lt;pre style=&quot;margin-top: 0px; margin-bottom: 0px;&quot;&gt;&lt;span style=&quot;font-weight:600; color:#00677c;&quot;&gt;onResponseUserLogin&lt;br&gt;&lt;/span&gt;(&lt;font color=&quot;#092e64&quot;&gt;userId&lt;/font&gt;,&lt;span style=&quot;color:#c0c0c0;&quot;&gt; &lt;/span&gt;E_LOGIN_RESULT_SUCCESS)&lt;br&gt;&lt;/pre&gt;" style="html=1;verticalAlign=bottom;endArrow=open;dashed=1;endSize=8;rounded=0;entryX=0.523;entryY=0.209;entryDx=0;entryDy=0;entryPerimeter=0;" parent="Ll0TUTOF1Aih_Eim0PND-1" target="Ll0TUTOF1Aih_Eim0PND-2" edge="1">
          <mxGeometry relative="1" as="geometry">
            <mxPoint x="427" y="746" as="targetPoint" />
            <mxPoint x="755" y="747" as="sourcePoint" />
          </mxGeometry>
        </mxCell>
        <mxCell id="jUwYqst78MV3PYVB4rAi-20" value="&lt;pre style=&quot;margin-top: 0px; margin-bottom: 0px;&quot;&gt;requestUserLogin(userId,&lt;span style=&quot;color:#c0c0c0;&quot;&gt; &lt;/span&gt;pin)&lt;/pre&gt;" style="html=1;verticalAlign=bottom;endArrow=block;rounded=0;" parent="Ll0TUTOF1Aih_Eim0PND-1" source="Ll0TUTOF1Aih_Eim0PND-2" edge="1">
          <mxGeometry relative="1" as="geometry">
            <mxPoint x="427" y="1097" as="sourcePoint" />
            <mxPoint x="755" y="1095" as="targetPoint" />
          </mxGeometry>
        </mxCell>
        <mxCell id="jUwYqst78MV3PYVB4rAi-21" value="&lt;pre style=&quot;margin-top: 0px; margin-bottom: 0px;&quot;&gt;&lt;span style=&quot;font-weight:600; color:#00677c;&quot;&gt;onResponseUserLogin&lt;br&gt;&lt;/span&gt;(&lt;font color=&quot;#092e64&quot;&gt;userId&lt;/font&gt;,&lt;span style=&quot;color:#c0c0c0;&quot;&gt; &lt;/span&gt;E_LOGIN_RESULT_OVER_INVALID_PIN_INPUT)&lt;br&gt;&lt;/pre&gt;" style="html=1;verticalAlign=bottom;endArrow=open;dashed=1;endSize=8;rounded=0;" parent="Ll0TUTOF1Aih_Eim0PND-1" target="Ll0TUTOF1Aih_Eim0PND-2" edge="1">
          <mxGeometry relative="1" as="geometry">
            <mxPoint x="427" y="1135" as="targetPoint" />
            <mxPoint x="760" y="1135" as="sourcePoint" />
          </mxGeometry>
        </mxCell>
        <mxCell id="QzJCntWpNUbFTJizOiE5-1" value="requestChangeAccountPIN" style="html=1;verticalAlign=bottom;endArrow=block;rounded=0;" parent="Ll0TUTOF1Aih_Eim0PND-1" edge="1">
          <mxGeometry relative="1" as="geometry">
            <mxPoint x="416.6666666666665" y="1426" as="sourcePoint" />
            <mxPoint x="750" y="1426" as="targetPoint" />
          </mxGeometry>
        </mxCell>
        <mxCell id="QzJCntWpNUbFTJizOiE5-2" value="onResponseChangeAccountPIN" style="html=1;verticalAlign=bottom;endArrow=open;dashed=1;endSize=8;rounded=0;" parent="Ll0TUTOF1Aih_Eim0PND-1" edge="1">
          <mxGeometry relative="1" as="geometry">
            <mxPoint x="416.6666666666665" y="1454.4999999999998" as="targetPoint" />
            <mxPoint x="750" y="1455" as="sourcePoint" />
          </mxGeometry>
        </mxCell>
      </root>
    </mxGraphModel>
  </diagram>
</mxfile>
